# Blender v2.77 (sub 0) OBJ File: ''
# www.blender.org
mtllib character.mtl
o Icosphere
v -0.250000 -0.025000 -0.350000
v -0.340451 0.044098 -0.415716
v -0.215452 0.044098 -0.456331
v -0.138197 0.044098 -0.350000
v -0.215452 0.044098 -0.243669
v -0.340451 0.044098 -0.284284
v -0.284549 0.155902 -0.456331
v -0.159549 0.155902 -0.415716
v -0.159549 0.155902 -0.284284
v -0.284549 0.155902 -0.243669
v -0.361803 0.155902 -0.350000
v -0.250000 0.225000 -0.350000
v -0.229693 -0.006332 -0.412499
v -0.303165 -0.006332 -0.388626
v -0.282859 0.034283 -0.451126
v -0.356331 0.034283 -0.350000
v -0.303165 -0.006332 -0.311374
v -0.184284 -0.006331 -0.350000
v -0.163976 0.034283 -0.412500
v -0.229693 -0.006332 -0.287501
v -0.163976 0.034283 -0.287500
v -0.282859 0.034283 -0.248873
v -0.368882 0.100000 -0.388627
v -0.368882 0.100000 -0.311373
v -0.250000 0.100000 -0.475000
v -0.323473 0.100000 -0.451127
v -0.131118 0.100000 -0.388627
v -0.176527 0.100000 -0.451127
v -0.176527 0.100000 -0.248873
v -0.131118 0.100000 -0.311373
v -0.323473 0.100000 -0.248873
v -0.250000 0.100000 -0.225000
v -0.336024 0.165717 -0.412500
v -0.217141 0.165717 -0.451126
v -0.143669 0.165717 -0.350000
v -0.217141 0.165717 -0.248874
v -0.336024 0.165717 -0.287500
v -0.270307 0.206332 -0.412499
v -0.315716 0.206331 -0.350000
v -0.196835 0.206332 -0.388626
v -0.196835 0.206332 -0.311374
v -0.270307 0.206332 -0.287501
v 0.250000 -0.025000 -0.350000
v 0.159549 0.044098 -0.415716
v 0.284548 0.044098 -0.456331
v 0.361803 0.044098 -0.350000
v 0.284548 0.044098 -0.243669
v 0.159549 0.044098 -0.284284
v 0.215451 0.155902 -0.456331
v 0.340451 0.155902 -0.415716
v 0.340451 0.155902 -0.284284
v 0.215451 0.155902 -0.243669
v 0.138197 0.155902 -0.350000
v 0.250000 0.225000 -0.350000
v 0.270307 -0.006332 -0.412499
v 0.196835 -0.006332 -0.388626
v 0.217141 0.034283 -0.451126
v 0.143669 0.034283 -0.350000
v 0.196835 -0.006332 -0.311374
v 0.315716 -0.006331 -0.350000
v 0.336024 0.034283 -0.412500
v 0.270307 -0.006332 -0.287501
v 0.336024 0.034283 -0.287500
v 0.217141 0.034283 -0.248874
v 0.131118 0.100000 -0.388627
v 0.131118 0.100000 -0.311373
v 0.250000 0.100000 -0.475000
v 0.176527 0.100000 -0.451127
v 0.368882 0.100000 -0.388627
v 0.323473 0.100000 -0.451127
v 0.323473 0.100000 -0.248873
v 0.368882 0.100000 -0.311373
v 0.176527 0.100000 -0.248873
v 0.250000 0.100000 -0.225000
v 0.163976 0.165717 -0.412500
v 0.282859 0.165717 -0.451126
v 0.356331 0.165717 -0.350000
v 0.282859 0.165717 -0.248874
v 0.163976 0.165717 -0.287500
v 0.229693 0.206332 -0.412499
v 0.184284 0.206331 -0.350000
v 0.303165 0.206332 -0.388626
v 0.303165 0.206332 -0.311374
v 0.229693 0.206332 -0.287501
v 0.000000 -0.500000 0.000000
v -0.361804 -0.223610 -0.262863
v 0.138194 -0.223610 -0.425325
v 0.447213 -0.223608 -0.000000
v 0.138194 -0.223610 0.425325
v -0.361804 -0.223610 0.262863
v -0.138194 0.223610 -0.425325
v 0.361804 0.223610 -0.262863
v 0.361804 0.223610 0.262863
v -0.138194 0.223610 0.425325
v -0.447213 0.223608 0.000000
v 0.000000 0.500000 0.000000
v 0.081228 -0.425327 -0.249998
v -0.212661 -0.425327 -0.154506
v -0.131434 -0.262869 -0.404506
v -0.425324 -0.262868 0.000000
v -0.212661 -0.425327 0.154506
v 0.262865 -0.425326 -0.000000
v 0.344095 -0.262868 -0.249999
v 0.081228 -0.425327 0.249998
v 0.344095 -0.262868 0.249998
v -0.131434 -0.262869 0.404506
v -0.475529 0.000000 -0.154506
v -0.475529 0.000000 0.154506
v -0.000000 0.000000 -0.500000
v -0.293893 0.000000 -0.404508
v 0.475529 0.000000 -0.154506
v 0.293893 0.000000 -0.404508
v 0.293893 0.000000 0.404508
v 0.475529 0.000000 0.154506
v -0.293893 0.000000 0.404508
v 0.000000 0.000000 0.500000
v -0.344095 0.262868 -0.249998
v 0.131434 0.262869 -0.404506
v 0.425324 0.262868 -0.000000
v 0.131434 0.262869 0.404506
v -0.344095 0.262868 0.249999
v -0.081228 0.425327 -0.249998
v -0.262865 0.425326 0.000000
v 0.212661 0.425327 -0.154506
v 0.212661 0.425327 0.154506
v -0.081228 0.425327 0.249998
vn -0.1024 -0.9435 -0.3151
vn -0.7002 -0.6617 -0.2680
vn 0.2680 -0.9435 -0.1947
vn 0.2680 -0.9435 0.1947
vn -0.1024 -0.9435 0.3151
vn -0.9050 -0.3304 -0.2680
vn -0.0247 -0.3304 -0.9435
vn 0.8897 -0.3304 -0.3151
vn 0.5746 -0.3304 0.7488
vn -0.5346 -0.3304 0.7779
vn -0.8026 -0.1256 -0.5831
vn 0.3066 -0.1256 -0.9435
vn 0.9921 -0.1256 -0.0000
vn 0.3066 -0.1256 0.9435
vn -0.8026 -0.1256 0.5831
vn -0.4089 0.6617 -0.6284
vn 0.4713 0.6617 -0.5831
vn 0.7002 0.6617 0.2680
vn -0.0385 0.6617 0.7488
vn -0.7240 0.6617 0.1947
vn -0.2680 0.9435 0.1947
vn -0.4911 0.7947 0.3568
vn -0.4089 0.6617 0.6284
vn 0.1024 0.9435 0.3151
vn 0.1876 0.7947 0.5773
vn 0.4713 0.6617 0.5831
vn 0.3313 0.9435 -0.0000
vn 0.6071 0.7947 -0.0000
vn 0.7002 0.6617 -0.2680
vn 0.1024 0.9435 -0.3151
vn 0.1876 0.7947 -0.5773
vn -0.0385 0.6617 -0.7488
vn -0.2680 0.9435 -0.1947
vn -0.4911 0.7947 -0.3568
vn -0.7240 0.6617 -0.1947
vn -0.8897 0.3304 0.3151
vn -0.7947 0.1876 0.5773
vn -0.5746 0.3304 0.7488
vn 0.0247 0.3304 0.9435
vn 0.3035 0.1876 0.9342
vn 0.5346 0.3304 0.7779
vn 0.9050 0.3304 0.2680
vn 0.9822 0.1876 -0.0000
vn 0.9050 0.3304 -0.2680
vn 0.5346 0.3304 -0.7779
vn 0.3035 0.1876 -0.9342
vn 0.0247 0.3304 -0.9435
vn -0.5746 0.3304 -0.7488
vn -0.7947 0.1876 -0.5773
vn -0.8897 0.3304 -0.3151
vn -0.3066 0.1256 0.9435
vn -0.3035 -0.1876 0.9342
vn -0.0247 -0.3304 0.9435
vn 0.8026 0.1256 0.5831
vn 0.7947 -0.1876 0.5773
vn 0.8897 -0.3304 0.3151
vn 0.8026 0.1256 -0.5831
vn 0.7947 -0.1876 -0.5773
vn 0.5746 -0.3304 -0.7488
vn -0.3066 0.1256 -0.9435
vn -0.3035 -0.1876 -0.9342
vn -0.5346 -0.3304 -0.7779
vn -0.9921 0.1256 0.0000
vn -0.9822 -0.1876 -0.0000
vn -0.9050 -0.3304 0.2680
vn -0.4713 -0.6617 0.5831
vn -0.1876 -0.7947 0.5773
vn 0.0385 -0.6617 0.7488
vn 0.4089 -0.6617 0.6284
vn 0.4911 -0.7947 0.3568
vn 0.7240 -0.6617 0.1947
vn 0.7240 -0.6617 -0.1947
vn 0.4911 -0.7947 -0.3568
vn 0.4089 -0.6617 -0.6284
vn -0.7002 -0.6617 0.2680
vn -0.6071 -0.7947 0.0000
vn -0.3313 -0.9435 -0.0000
vn 0.0385 -0.6617 -0.7488
vn -0.1876 -0.7947 -0.5773
vn -0.4713 -0.6617 -0.5831
usemtl None
s off
f 1//1 14//1 13//1
f 2//2 14//2 16//2
f 1//3 13//3 18//3
f 1//4 18//4 20//4
f 1//5 20//5 17//5
f 2//6 16//6 23//6
f 3//7 15//7 25//7
f 4//8 19//8 27//8
f 5//9 21//9 29//9
f 6//10 22//10 31//10
f 2//11 23//11 26//11
f 3//12 25//12 28//12
f 4//13 27//13 30//13
f 5//14 29//14 32//14
f 6//15 31//15 24//15
f 7//16 33//16 38//16
f 8//17 34//17 40//17
f 9//18 35//18 41//18
f 10//19 36//19 42//19
f 11//20 37//20 39//20
f 39//21 42//21 12//21
f 39//22 37//22 42//22
f 37//23 10//23 42//23
f 42//24 41//24 12//24
f 42//25 36//25 41//25
f 36//26 9//26 41//26
f 41//27 40//27 12//27
f 41//28 35//28 40//28
f 35//29 8//29 40//29
f 40//30 38//30 12//30
f 40//31 34//31 38//31
f 34//32 7//32 38//32
f 38//33 39//33 12//33
f 38//34 33//34 39//34
f 33//35 11//35 39//35
f 24//36 37//36 11//36
f 24//37 31//37 37//37
f 31//38 10//38 37//38
f 32//39 36//39 10//39
f 32//40 29//40 36//40
f 29//41 9//41 36//41
f 30//42 35//42 9//42
f 30//43 27//43 35//43
f 27//44 8//44 35//44
f 28//45 34//45 8//45
f 28//46 25//46 34//46
f 25//47 7//47 34//47
f 26//48 33//48 7//48
f 26//49 23//49 33//49
f 23//50 11//50 33//50
f 31//51 32//51 10//51
f 31//52 22//52 32//52
f 22//53 5//53 32//53
f 29//54 30//54 9//54
f 29//55 21//55 30//55
f 21//56 4//56 30//56
f 27//57 28//57 8//57
f 27//58 19//58 28//58
f 19//59 3//59 28//59
f 25//60 26//60 7//60
f 25//61 15//61 26//61
f 15//62 2//62 26//62
f 23//63 24//63 11//63
f 23//64 16//64 24//64
f 16//65 6//65 24//65
f 17//66 22//66 6//66
f 17//67 20//67 22//67
f 20//68 5//68 22//68
f 20//69 21//69 5//69
f 20//70 18//70 21//70
f 18//71 4//71 21//71
f 18//72 19//72 4//72
f 18//73 13//73 19//73
f 13//74 3//74 19//74
f 16//75 17//75 6//75
f 16//76 14//76 17//76
f 14//77 1//77 17//77
f 13//78 15//78 3//78
f 13//79 14//79 15//79
f 14//80 2//80 15//80
f 43//1 56//1 55//1
f 44//2 56//2 58//2
f 43//3 55//3 60//3
f 43//4 60//4 62//4
f 43//5 62//5 59//5
f 44//6 58//6 65//6
f 45//7 57//7 67//7
f 46//8 61//8 69//8
f 47//9 63//9 71//9
f 48//10 64//10 73//10
f 44//11 65//11 68//11
f 45//12 67//12 70//12
f 46//13 69//13 72//13
f 47//14 71//14 74//14
f 48//15 73//15 66//15
f 49//16 75//16 80//16
f 50//17 76//17 82//17
f 51//18 77//18 83//18
f 52//19 78//19 84//19
f 53//20 79//20 81//20
f 81//21 84//21 54//21
f 81//22 79//22 84//22
f 79//23 52//23 84//23
f 84//24 83//24 54//24
f 84//25 78//25 83//25
f 78//26 51//26 83//26
f 83//27 82//27 54//27
f 83//28 77//28 82//28
f 77//29 50//29 82//29
f 82//30 80//30 54//30
f 82//31 76//31 80//31
f 76//32 49//32 80//32
f 80//33 81//33 54//33
f 80//34 75//34 81//34
f 75//35 53//35 81//35
f 66//36 79//36 53//36
f 66//37 73//37 79//37
f 73//38 52//38 79//38
f 74//39 78//39 52//39
f 74//40 71//40 78//40
f 71//41 51//41 78//41
f 72//42 77//42 51//42
f 72//43 69//43 77//43
f 69//44 50//44 77//44
f 70//45 76//45 50//45
f 70//46 67//46 76//46
f 67//47 49//47 76//47
f 68//48 75//48 49//48
f 68//49 65//49 75//49
f 65//50 53//50 75//50
f 73//51 74//51 52//51
f 73//52 64//52 74//52
f 64//53 47//53 74//53
f 71//54 72//54 51//54
f 71//55 63//55 72//55
f 63//56 46//56 72//56
f 69//57 70//57 50//57
f 69//58 61//58 70//58
f 61//59 45//59 70//59
f 67//60 68//60 49//60
f 67//61 57//61 68//61
f 57//62 44//62 68//62
f 65//63 66//63 53//63
f 65//64 58//64 66//64
f 58//65 48//65 66//65
f 59//66 64//66 48//66
f 59//67 62//67 64//67
f 62//68 47//68 64//68
f 62//69 63//69 47//69
f 62//70 60//70 63//70
f 60//71 46//71 63//71
f 60//72 61//72 46//72
f 60//73 55//73 61//73
f 55//74 45//74 61//74
f 58//75 59//75 48//75
f 58//76 56//76 59//76
f 56//77 43//77 59//77
f 55//78 57//78 45//78
f 55//79 56//79 57//79
f 56//80 44//80 57//80
f 85//1 98//1 97//1
f 86//2 98//2 100//2
f 85//3 97//3 102//3
f 85//4 102//4 104//4
f 85//5 104//5 101//5
f 86//6 100//6 107//6
f 87//7 99//7 109//7
f 88//8 103//8 111//8
f 89//9 105//9 113//9
f 90//10 106//10 115//10
f 86//11 107//11 110//11
f 87//12 109//12 112//12
f 88//13 111//13 114//13
f 89//14 113//14 116//14
f 90//15 115//15 108//15
f 91//16 117//16 122//16
f 92//17 118//17 124//17
f 93//18 119//18 125//18
f 94//19 120//19 126//19
f 95//20 121//20 123//20
f 123//21 126//21 96//21
f 123//22 121//22 126//22
f 121//23 94//23 126//23
f 126//24 125//24 96//24
f 126//25 120//25 125//25
f 120//26 93//26 125//26
f 125//27 124//27 96//27
f 125//28 119//28 124//28
f 119//29 92//29 124//29
f 124//30 122//30 96//30
f 124//31 118//31 122//31
f 118//32 91//32 122//32
f 122//33 123//33 96//33
f 122//34 117//34 123//34
f 117//35 95//35 123//35
f 108//36 121//36 95//36
f 108//37 115//37 121//37
f 115//38 94//38 121//38
f 116//39 120//39 94//39
f 116//40 113//40 120//40
f 113//41 93//41 120//41
f 114//42 119//42 93//42
f 114//43 111//43 119//43
f 111//44 92//44 119//44
f 112//45 118//45 92//45
f 112//46 109//46 118//46
f 109//47 91//47 118//47
f 110//48 117//48 91//48
f 110//49 107//49 117//49
f 107//50 95//50 117//50
f 115//51 116//51 94//51
f 115//52 106//52 116//52
f 106//53 89//53 116//53
f 113//54 114//54 93//54
f 113//55 105//55 114//55
f 105//56 88//56 114//56
f 111//57 112//57 92//57
f 111//58 103//58 112//58
f 103//59 87//59 112//59
f 109//60 110//60 91//60
f 109//61 99//61 110//61
f 99//62 86//62 110//62
f 107//63 108//63 95//63
f 107//64 100//64 108//64
f 100//65 90//65 108//65
f 101//66 106//66 90//66
f 101//67 104//67 106//67
f 104//68 89//68 106//68
f 104//69 105//69 89//69
f 104//70 102//70 105//70
f 102//71 88//71 105//71
f 102//72 103//72 88//72
f 102//73 97//73 103//73
f 97//74 87//74 103//74
f 100//75 101//75 90//75
f 100//76 98//76 101//76
f 98//77 85//77 101//77
f 97//78 99//78 87//78
f 97//79 98//79 99//79
f 98//80 86//80 99//80
