# MagicaVoxel @ Ephtracy

# material
mtllib map.mtl
usemtl palette

# normals
vn -1 0 0
vn 1 0 0
vn 0 0 1
vn 0 0 -1
vn 0 -1 0
vn 0 1 0

# texcoords
vt 0.146484 0.5
vt 0.310547 0.5
vt 0.427734 0.5
vt 0.560547 0.5
vt 0.751953 0.5
vt 0.970703 0.5
vt 0.982422 0.5

# verts
v -32 0 32
v -32 0 -32
v -32 1 32
v -32 1 24
v -32 1 -32
v -32 6 32
v -32 6 24
v -32 6 -32
v -32 7 24
v -32 7 -24
v -32 7 -32
v -32 9 -24
v -32 9 -32
v -25 7 14
v -25 7 -1
v -25 7 -7
v -25 7 -13
v -25 7 -19
v -25 7 -24
v -25 9 14
v -25 9 -1
v -25 9 -7
v -25 9 -13
v -25 9 -19
v -25 9 -24
v -22 7 17
v -22 7 14
v -22 9 17
v -22 9 14
v -14 7 -7
v -14 7 -13
v -14 9 -7
v -14 9 -13
v -13 7 -19
v -13 7 -25
v -13 9 -19
v -13 9 -25
v -12 7 -1
v -12 7 -2
v -12 7 -6
v -12 7 -7
v -12 9 -1
v -12 9 -2
v -12 9 -6
v -12 9 -7
v -9 7 17
v -9 7 13
v -9 9 17
v -9 9 13
v -2 7 13
v -2 7 4
v -2 7 -2
v -2 7 -4
v -2 8 -2
v -2 8 -4
v -2 9 13
v -2 9 4
v 0 7 24
v 0 7 19
v 0 9 24
v 0 9 19
v 4 7 4
v 4 7 -8
v 4 7 -13
v 4 9 4
v 4 9 -13
v 11 7 -19
v 11 7 -25
v 11 9 -19
v 11 9 -25
v 12 7 -13
v 12 7 -15
v 12 7 -17
v 12 7 -19
v 12 9 -13
v 12 9 -15
v 12 9 -17
v 12 9 -19
v 17 7 -4
v 17 7 -17
v 17 9 -4
v 17 9 -17
v 19 7 8
v 19 7 2
v 19 7 -2
v 19 7 -4
v 19 9 8
v 19 9 2
v 19 9 -2
v 19 9 -4
v 22 7 22
v 22 7 20
v 22 7 18
v 22 7 14
v 22 8 18
v 22 8 14
v 22 9 22
v 22 9 20
v 27 7 24
v 27 7 22
v 27 9 24
v 27 9 22
v 28 7 20
v 28 7 12
v 28 9 20
v 28 9 12
v -24 7 -25
v -24 7 -32
v -24 9 -25
v -24 9 -32
v -19 7 17
v -19 7 13
v -19 7 -19
v -19 7 -25
v -19 9 17
v -19 9 13
v -19 9 -19
v -19 9 -25
v -18 7 -7
v -18 7 -13
v -18 9 -7
v -18 9 -13
v -8 7 4
v -8 7 -2
v -8 7 -6
v -8 7 -8
v -8 9 4
v -8 9 -2
v -8 9 -6
v -8 9 -8
v -6 7 17
v -6 7 4
v -6 9 17
v -6 9 4
v 0 7 -8
v 0 7 -13
v 0 9 -8
v 0 9 -13
v 2 7 -2
v 2 7 -4
v 2 8 -2
v 2 8 -4
v 5 7 -19
v 5 7 -25
v 5 9 -19
v 5 9 -25
v 13 7 8
v 13 7 -4
v 13 9 8
v 13 9 -4
v 15 7 -4
v 15 7 -15
v 15 9 -4
v 15 9 -15
v 16 7 20
v 16 7 19
v 16 7 13
v 16 7 8
v 16 9 20
v 16 9 19
v 16 9 13
v 16 9 8
v 17 7 24
v 17 7 22
v 17 9 24
v 17 9 22
v 18 7 22
v 18 7 20
v 18 9 22
v 18 9 20
v 21 7 3
v 21 7 2
v 21 7 -2
v 21 7 -3
v 21 9 3
v 21 9 2
v 21 9 -2
v 21 9 -3
v 22 7 -22
v 22 7 -25
v 22 9 -22
v 22 9 -25
v 24 7 18
v 24 7 14
v 24 8 18
v 24 8 14
v 25 7 -3
v 25 7 -22
v 25 9 -3
v 25 9 -22
v 28 7 8
v 28 7 3
v 28 9 8
v 28 9 3
v 32 0 32
v 32 0 -32
v 32 1 32
v 32 1 24
v 32 1 -32
v 32 6 32
v 32 6 24
v 32 6 -32
v 32 7 24
v 32 7 12
v 32 7 -32
v 32 9 24
v 32 9 12
v -32 0 32
v -32 1 32
v -32 6 32
v 32 0 32
v 32 1 32
v 32 6 32
v -32 6 24
v -32 7 24
v 0 7 24
v 0 9 24
v 17 7 24
v 17 9 24
v 27 7 24
v 27 9 24
v 32 6 24
v 32 7 24
v 32 9 24
v 17 7 22
v 17 9 22
v 18 7 22
v 18 9 22
v 22 7 22
v 22 9 22
v 27 7 22
v 27 9 22
v 22 7 18
v 22 8 18
v 24 7 18
v 24 8 18
v -22 7 17
v -22 9 17
v -19 7 17
v -19 9 17
v -9 7 17
v -9 9 17
v -6 7 17
v -6 9 17
v -25 7 14
v -25 9 14
v -22 7 14
v -22 9 14
v -19 7 13
v -19 9 13
v -9 7 13
v -9 9 13
v -2 7 13
v -2 9 13
v 16 7 13
v 16 9 13
v 19 7 8
v 19 9 8
v 28 7 8
v 28 9 8
v -2 7 -2
v -2 8 -2
v 2 7 -2
v 2 8 -2
v 19 7 -2
v 19 9 -2
v 21 7 -2
v 21 9 -2
v 21 7 -3
v 21 9 -3
v 25 7 -3
v 25 9 -3
v 13 7 -4
v 13 9 -4
v 15 7 -4
v 15 9 -4
v 17 7 -4
v 17 9 -4
v 19 7 -4
v 19 9 -4
v -12 7 -6
v -12 9 -6
v -8 7 -6
v -8 9 -6
v -25 7 -7
v -25 9 -7
v -18 7 -7
v -18 9 -7
v -14 7 -7
v -14 9 -7
v -12 7 -7
v -12 9 -7
v -8 7 -8
v -8 9 -8
v 0 7 -8
v 0 9 -8
v 12 7 -17
v 12 9 -17
v 17 7 -17
v 17 9 -17
v -25 7 -19
v -25 9 -19
v -19 7 -19
v -19 9 -19
v -13 7 -19
v -13 9 -19
v 5 7 -19
v 5 9 -19
v 11 7 -19
v 11 9 -19
v 12 7 -19
v 12 9 -19
v -32 7 -24
v -32 9 -24
v -25 7 -24
v -25 9 -24
v 16 7 20
v 16 9 20
v 18 7 20
v 18 9 20
v 22 7 20
v 22 9 20
v 28 7 20
v 28 9 20
v 0 7 19
v 0 9 19
v 16 7 19
v 16 9 19
v 22 7 14
v 22 8 14
v 24 7 14
v 24 8 14
v 28 7 12
v 28 9 12
v 32 7 12
v 32 9 12
v 13 7 8
v 13 9 8
v 16 7 8
v 16 9 8
v -8 7 4
v -8 9 4
v -6 7 4
v -6 9 4
v -2 7 4
v -2 9 4
v 4 7 4
v 4 9 4
v 21 7 3
v 21 9 3
v 28 7 3
v 28 9 3
v 19 7 2
v 19 9 2
v 21 7 2
v 21 9 2
v -25 7 -1
v -25 9 -1
v -12 7 -1
v -12 9 -1
v -12 7 -2
v -12 9 -2
v -8 7 -2
v -8 9 -2
v -2 7 -4
v -2 8 -4
v 2 7 -4
v 2 8 -4
v -25 7 -13
v -25 9 -13
v -18 7 -13
v -18 9 -13
v -14 7 -13
v -14 9 -13
v 0 7 -13
v 0 9 -13
v 4 7 -13
v 4 9 -13
v 12 7 -13
v 12 9 -13
v 12 7 -15
v 12 9 -15
v 15 7 -15
v 15 9 -15
v 22 7 -22
v 22 9 -22
v 25 7 -22
v 25 9 -22
v -24 7 -25
v -24 9 -25
v -19 7 -25
v -19 9 -25
v -13 7 -25
v -13 9 -25
v 5 7 -25
v 5 9 -25
v 11 7 -25
v 11 9 -25
v 22 7 -25
v 22 9 -25
v -32 0 -32
v -32 1 -32
v -32 6 -32
v -32 7 -32
v -32 9 -32
v -24 7 -32
v -24 9 -32
v 32 0 -32
v 32 1 -32
v 32 6 -32
v 32 7 -32
v -32 0 32
v 32 0 32
v -32 0 -32
v 32 0 -32
v -32 6 32
v 32 6 32
v -32 6 24
v 32 6 24
v -32 7 24
v 0 7 24
v 17 7 24
v 27 7 24
v -31 7 23
v -25 7 23
v 17 7 22
v 18 7 22
v 22 7 22
v 27 7 22
v 16 7 20
v 18 7 20
v 22 7 20
v 28 7 20
v 0 7 19
v 16 7 19
v 22 7 18
v 24 7 18
v -31 7 17
v -25 7 17
v -22 7 17
v -19 7 17
v -9 7 17
v -6 7 17
v -25 7 14
v -22 7 14
v 22 7 14
v 24 7 14
v -19 7 13
v -9 7 13
v -2 7 13
v 16 7 13
v 28 7 12
v 32 7 12
v 13 7 8
v 16 7 8
v 19 7 8
v 28 7 8
v -8 7 4
v -6 7 4
v -2 7 4
v 4 7 4
v 21 7 3
v 28 7 3
v 19 7 2
v 21 7 2
v -25 7 -1
v -12 7 -1
v -12 7 -2
v -8 7 -2
v -2 7 -2
v 2 7 -2
v 19 7 -2
v 21 7 -2
v 21 7 -3
v 25 7 -3
v -2 7 -4
v 2 7 -4
v 13 7 -4
v 15 7 -4
v 17 7 -4
v 19 7 -4
v -12 7 -6
v -8 7 -6
v -25 7 -7
v -18 7 -7
v -14 7 -7
v -12 7 -7
v -8 7 -8
v 0 7 -8
v 4 7 -8
v -25 7 -13
v -18 7 -13
v -14 7 -13
v 0 7 -13
v 4 7 -13
v 12 7 -13
v 12 7 -15
v 15 7 -15
v 12 7 -17
v 17 7 -17
v -25 7 -19
v -19 7 -19
v -13 7 -19
v 5 7 -19
v 11 7 -19
v 12 7 -19
v 22 7 -22
v 25 7 -22
v -32 7 -24
v -25 7 -24
v -24 7 -25
v -19 7 -25
v -13 7 -25
v 5 7 -25
v 11 7 -25
v 22 7 -25
v 25 7 -25
v 31 7 -25
v 25 7 -31
v 31 7 -31
v -24 7 -32
v 32 7 -32
v 22 8 18
v 24 8 18
v 22 8 14
v 24 8 14
v -2 8 -2
v 2 8 -2
v -2 8 -4
v 2 8 -4
v 0 9 24
v 17 9 24
v 27 9 24
v 32 9 24
v 17 9 22
v 18 9 22
v 22 9 22
v 27 9 22
v 16 9 20
v 18 9 20
v 22 9 20
v 28 9 20
v 0 9 19
v 16 9 19
v -22 9 17
v -19 9 17
v -9 9 17
v -6 9 17
v -25 9 14
v -22 9 14
v -19 9 13
v -9 9 13
v -2 9 13
v 16 9 13
v 28 9 12
v 32 9 12
v 13 9 8
v 16 9 8
v 19 9 8
v 28 9 8
v -8 9 4
v -6 9 4
v -2 9 4
v 4 9 4
v 21 9 3
v 28 9 3
v 19 9 2
v 21 9 2
v -25 9 -1
v -12 9 -1
v -12 9 -2
v -8 9 -2
v 19 9 -2
v 21 9 -2
v 21 9 -3
v 25 9 -3
v 13 9 -4
v 15 9 -4
v 17 9 -4
v 19 9 -4
v -12 9 -6
v -8 9 -6
v -25 9 -7
v -18 9 -7
v -14 9 -7
v -12 9 -7
v -8 9 -8
v 0 9 -8
v -25 9 -13
v -18 9 -13
v -14 9 -13
v 0 9 -13
v 4 9 -13
v 12 9 -13
v 12 9 -15
v 15 9 -15
v 12 9 -17
v 17 9 -17
v -25 9 -19
v -19 9 -19
v -13 9 -19
v 5 9 -19
v 11 9 -19
v 12 9 -19
v 22 9 -22
v 25 9 -22
v -32 9 -24
v -25 9 -24
v -24 9 -25
v -19 9 -25
v -13 9 -25
v 5 9 -25
v 11 9 -25
v 22 9 -25
v -32 9 -32
v -24 9 -32

# faces
f 3/2/1 2/2/1 1/2/1
f 4/2/1 2/2/1 3/2/1
f 5/2/1 2/2/1 4/2/1
f 6/5/1 4/5/1 3/5/1
f 7/6/1 5/6/1 4/6/1
f 7/5/1 4/5/1 6/5/1
f 8/6/1 5/6/1 7/6/1
f 9/7/1 8/7/1 7/7/1
f 10/7/1 8/7/1 9/7/1
f 11/7/1 8/7/1 10/7/1
f 12/6/1 11/6/1 10/6/1
f 13/6/1 11/6/1 12/6/1
f 20/6/1 15/6/1 14/6/1
f 21/6/1 15/6/1 20/6/1
f 22/6/1 17/6/1 16/6/1
f 23/6/1 17/6/1 22/6/1
f 24/6/1 19/6/1 18/6/1
f 25/6/1 19/6/1 24/6/1
f 28/6/1 27/6/1 26/6/1
f 29/6/1 27/6/1 28/6/1
f 32/6/1 31/6/1 30/6/1
f 33/6/1 31/6/1 32/6/1
f 36/6/1 35/6/1 34/6/1
f 37/6/1 35/6/1 36/6/1
f 42/6/1 39/6/1 38/6/1
f 43/6/1 39/6/1 42/6/1
f 44/6/1 41/6/1 40/6/1
f 45/6/1 41/6/1 44/6/1
f 48/6/1 47/6/1 46/6/1
f 49/6/1 47/6/1 48/6/1
f 54/6/1 53/6/1 52/6/1
f 55/6/1 53/6/1 54/6/1
f 56/6/1 51/6/1 50/6/1
f 57/6/1 51/6/1 56/6/1
f 60/6/1 59/6/1 58/6/1
f 61/6/1 59/6/1 60/6/1
f 65/6/1 63/6/1 62/6/1
f 65/6/1 64/6/1 63/6/1
f 66/6/1 64/6/1 65/6/1
f 69/6/1 68/6/1 67/6/1
f 70/6/1 68/6/1 69/6/1
f 75/6/1 72/6/1 71/6/1
f 76/6/1 72/6/1 75/6/1
f 77/6/1 74/6/1 73/6/1
f 78/6/1 74/6/1 77/6/1
f 81/6/1 80/6/1 79/6/1
f 82/6/1 80/6/1 81/6/1
f 87/6/1 84/6/1 83/6/1
f 88/6/1 84/6/1 87/6/1
f 89/6/1 86/6/1 85/6/1
f 90/6/1 86/6/1 89/6/1
f 95/6/1 94/6/1 93/6/1
f 96/6/1 94/6/1 95/6/1
f 97/6/1 92/6/1 91/6/1
f 98/6/1 92/6/1 97/6/1
f 101/6/1 100/6/1 99/6/1
f 102/6/1 100/6/1 101/6/1
f 105/6/1 104/6/1 103/6/1
f 106/6/1 104/6/1 105/6/1
f 107/6/2 108/6/2 109/6/2
f 109/6/2 108/6/2 110/6/2
f 111/6/2 112/6/2 115/6/2
f 115/6/2 112/6/2 116/6/2
f 113/6/2 114/6/2 117/6/2
f 117/6/2 114/6/2 118/6/2
f 119/6/2 120/6/2 121/6/2
f 121/6/2 120/6/2 122/6/2
f 123/6/2 124/6/2 127/6/2
f 127/6/2 124/6/2 128/6/2
f 125/6/2 126/6/2 129/6/2
f 129/6/2 126/6/2 130/6/2
f 131/6/2 132/6/2 133/6/2
f 133/6/2 132/6/2 134/6/2
f 135/6/2 136/6/2 137/6/2
f 137/6/2 136/6/2 138/6/2
f 139/6/2 140/6/2 141/6/2
f 141/6/2 140/6/2 142/6/2
f 143/6/2 144/6/2 145/6/2
f 145/6/2 144/6/2 146/6/2
f 147/6/2 148/6/2 149/6/2
f 149/6/2 148/6/2 150/6/2
f 151/6/2 152/6/2 153/6/2
f 153/6/2 152/6/2 154/6/2
f 155/6/2 156/6/2 159/6/2
f 159/6/2 156/6/2 160/6/2
f 157/6/2 158/6/2 161/6/2
f 161/6/2 158/6/2 162/6/2
f 163/6/2 164/6/2 165/6/2
f 165/6/2 164/6/2 166/6/2
f 167/6/2 168/6/2 169/6/2
f 169/6/2 168/6/2 170/6/2
f 171/6/2 172/6/2 175/6/2
f 175/6/2 172/6/2 176/6/2
f 173/6/2 174/6/2 177/6/2
f 177/6/2 174/6/2 178/6/2
f 179/6/2 180/6/2 181/6/2
f 181/6/2 180/6/2 182/6/2
f 183/6/2 184/6/2 185/6/2
f 185/6/2 184/6/2 186/6/2
f 187/6/2 188/6/2 189/6/2
f 189/6/2 188/6/2 190/6/2
f 191/6/2 192/6/2 193/6/2
f 193/6/2 192/6/2 194/6/2
f 195/2/2 196/2/2 197/2/2
f 197/2/2 196/2/2 198/2/2
f 198/2/2 196/2/2 199/2/2
f 197/5/2 198/5/2 200/5/2
f 198/6/2 199/6/2 201/6/2
f 200/5/2 198/5/2 201/5/2
f 201/6/2 199/6/2 202/6/2
f 201/7/2 202/7/2 203/7/2
f 203/7/2 202/7/2 204/7/2
f 204/7/2 202/7/2 205/7/2
f 203/6/2 204/6/2 206/6/2
f 206/6/2 204/6/2 207/6/2
f 211/2/3 209/2/3 208/2/3
f 212/5/3 210/5/3 209/5/3
f 212/2/3 209/2/3 211/2/3
f 213/5/3 210/5/3 212/5/3
f 216/7/3 215/7/3 214/7/3
f 218/7/3 216/7/3 214/7/3
f 218/6/3 217/6/3 216/6/3
f 219/6/3 217/6/3 218/6/3
f 220/7/3 218/7/3 214/7/3
f 222/7/3 220/7/3 214/7/3
f 223/6/3 221/6/3 220/6/3
f 223/7/3 220/7/3 222/7/3
f 224/6/3 221/6/3 223/6/3
f 227/6/3 226/6/3 225/6/3
f 228/6/3 226/6/3 227/6/3
f 231/6/3 230/6/3 229/6/3
f 232/6/3 230/6/3 231/6/3
f 235/6/3 234/6/3 233/6/3
f 236/6/3 234/6/3 235/6/3
f 239/6/3 238/6/3 237/6/3
f 240/6/3 238/6/3 239/6/3
f 243/6/3 242/6/3 241/6/3
f 244/6/3 242/6/3 243/6/3
f 247/6/3 246/6/3 245/6/3
f 248/6/3 246/6/3 247/6/3
f 251/6/3 250/6/3 249/6/3
f 252/6/3 250/6/3 251/6/3
f 255/6/3 254/6/3 253/6/3
f 256/6/3 254/6/3 255/6/3
f 259/6/3 258/6/3 257/6/3
f 260/6/3 258/6/3 259/6/3
f 263/6/3 262/6/3 261/6/3
f 264/6/3 262/6/3 263/6/3
f 267/6/3 266/6/3 265/6/3
f 268/6/3 266/6/3 267/6/3
f 271/6/3 270/6/3 269/6/3
f 272/6/3 270/6/3 271/6/3
f 275/6/3 274/6/3 273/6/3
f 276/6/3 274/6/3 275/6/3
f 279/6/3 278/6/3 277/6/3
f 280/6/3 278/6/3 279/6/3
f 283/6/3 282/6/3 281/6/3
f 284/6/3 282/6/3 283/6/3
f 287/6/3 286/6/3 285/6/3
f 288/6/3 286/6/3 287/6/3
f 291/6/3 290/6/3 289/6/3
f 292/6/3 290/6/3 291/6/3
f 295/6/3 294/6/3 293/6/3
f 296/6/3 294/6/3 295/6/3
f 299/6/3 298/6/3 297/6/3
f 300/6/3 298/6/3 299/6/3
f 303/6/3 302/6/3 301/6/3
f 304/6/3 302/6/3 303/6/3
f 307/6/3 306/6/3 305/6/3
f 308/6/3 306/6/3 307/6/3
f 311/6/3 310/6/3 309/6/3
f 312/6/3 310/6/3 311/6/3
f 315/6/3 314/6/3 313/6/3
f 316/6/3 314/6/3 315/6/3
f 317/6/4 318/6/4 319/6/4
f 319/6/4 318/6/4 320/6/4
f 321/6/4 322/6/4 323/6/4
f 323/6/4 322/6/4 324/6/4
f 325/6/4 326/6/4 327/6/4
f 327/6/4 326/6/4 328/6/4
f 329/6/4 330/6/4 331/6/4
f 331/6/4 330/6/4 332/6/4
f 333/6/4 334/6/4 335/6/4
f 335/6/4 334/6/4 336/6/4
f 337/6/4 338/6/4 339/6/4
f 339/6/4 338/6/4 340/6/4
f 341/6/4 342/6/4 343/6/4
f 343/6/4 342/6/4 344/6/4
f 345/6/4 346/6/4 347/6/4
f 347/6/4 346/6/4 348/6/4
f 349/6/4 350/6/4 351/6/4
f 351/6/4 350/6/4 352/6/4
f 353/6/4 354/6/4 355/6/4
f 355/6/4 354/6/4 356/6/4
f 357/6/4 358/6/4 359/6/4
f 359/6/4 358/6/4 360/6/4
f 361/6/4 362/6/4 363/6/4
f 363/6/4 362/6/4 364/6/4
f 365/6/4 366/6/4 367/6/4
f 367/6/4 366/6/4 368/6/4
f 369/6/4 370/6/4 371/6/4
f 371/6/4 370/6/4 372/6/4
f 373/6/4 374/6/4 375/6/4
f 375/6/4 374/6/4 376/6/4
f 377/6/4 378/6/4 379/6/4
f 379/6/4 378/6/4 380/6/4
f 381/6/4 382/6/4 383/6/4
f 383/6/4 382/6/4 384/6/4
f 385/6/4 386/6/4 387/6/4
f 387/6/4 386/6/4 388/6/4
f 389/6/4 390/6/4 391/6/4
f 391/6/4 390/6/4 392/6/4
f 393/6/4 394/6/4 395/6/4
f 395/6/4 394/6/4 396/6/4
f 397/6/4 398/6/4 399/6/4
f 399/6/4 398/6/4 400/6/4
f 403/7/4 404/7/4 406/7/4
f 404/6/4 405/6/4 406/6/4
f 406/6/4 405/6/4 407/6/4
f 401/2/4 402/2/4 408/2/4
f 402/6/4 403/6/4 409/6/4
f 408/2/4 402/2/4 409/2/4
f 403/7/4 406/7/4 410/7/4
f 409/6/4 403/6/4 410/6/4
f 410/7/4 406/7/4 411/7/4
f 414/2/5 413/2/5 412/2/5
f 415/2/5 413/2/5 414/2/5
f 416/5/6 417/5/6 418/5/6
f 418/5/6 417/5/6 419/5/6
f 420/7/6 421/7/6 424/7/6
f 424/7/6 421/7/6 425/7/6
f 422/7/6 423/7/6 426/7/6
f 426/7/6 423/7/6 427/7/6
f 427/7/6 423/7/6 428/7/6
f 428/7/6 423/7/6 429/7/6
f 427/7/6 428/7/6 431/7/6
f 431/7/6 428/7/6 432/7/6
f 425/7/6 421/7/6 434/7/6
f 432/3/6 433/3/6 435/3/6
f 431/3/6 432/3/6 435/3/6
f 430/3/6 431/3/6 435/3/6
f 435/3/6 433/3/6 436/3/6
f 436/3/6 433/3/6 437/3/6
f 420/7/6 424/7/6 438/7/6
f 424/4/6 425/4/6 438/4/6
f 425/7/6 434/7/6 439/7/6
f 438/4/6 425/4/6 439/4/6
f 434/7/6 435/7/6 439/7/6
f 439/7/6 435/7/6 440/7/6
f 440/7/6 435/7/6 441/7/6
f 441/7/6 435/7/6 442/7/6
f 442/7/6 435/7/6 443/7/6
f 438/7/6 439/7/6 444/7/6
f 439/7/6 440/7/6 444/7/6
f 444/7/6 440/7/6 445/7/6
f 435/3/6 436/3/6 446/3/6
f 437/3/6 433/3/6 447/3/6
f 441/7/6 442/7/6 448/7/6
f 448/7/6 442/7/6 449/7/6
f 443/7/6 435/7/6 450/7/6
f 435/3/6 446/3/6 451/3/6
f 450/7/6 435/7/6 451/7/6
f 446/3/6 447/3/6 451/3/6
f 451/3/6 447/3/6 452/3/6
f 447/3/6 433/3/6 452/3/6
f 451/3/6 452/3/6 455/3/6
f 455/3/6 452/3/6 456/3/6
f 452/7/6 453/7/6 457/7/6
f 456/3/6 452/3/6 457/3/6
f 443/7/6 450/7/6 459/7/6
f 459/7/6 450/7/6 460/7/6
f 457/7/6 453/7/6 463/7/6
f 455/7/6 456/7/6 464/7/6
f 454/7/6 455/7/6 464/7/6
f 462/7/6 463/7/6 465/7/6
f 438/7/6 444/7/6 466/7/6
f 466/7/6 467/7/6 468/7/6
f 460/3/6 461/3/6 469/3/6
f 458/3/6 459/3/6 469/3/6
f 459/3/6 460/3/6 469/3/6
f 469/3/6 461/3/6 470/3/6
f 470/3/6 461/3/6 471/3/6
f 464/7/6 465/7/6 472/7/6
f 454/7/6 464/7/6 472/7/6
f 465/7/6 463/7/6 473/7/6
f 472/7/6 465/7/6 473/7/6
f 473/7/6 463/7/6 474/7/6
f 474/7/6 463/7/6 475/7/6
f 469/3/6 470/3/6 476/3/6
f 471/3/6 461/3/6 477/3/6
f 454/7/6 472/7/6 478/7/6
f 478/7/6 472/7/6 479/7/6
f 479/7/6 472/7/6 480/7/6
f 480/7/6 472/7/6 481/7/6
f 466/7/6 468/7/6 482/7/6
f 468/7/6 469/7/6 482/7/6
f 469/3/6 476/3/6 483/3/6
f 482/7/6 469/7/6 483/7/6
f 476/3/6 477/3/6 483/3/6
f 466/7/6 482/7/6 484/7/6
f 438/7/6 466/7/6 484/7/6
f 484/7/6 482/7/6 485/7/6
f 485/7/6 482/7/6 486/7/6
f 486/7/6 482/7/6 487/7/6
f 483/3/6 477/3/6 488/3/6
f 488/3/6 477/3/6 489/3/6
f 477/3/6 461/3/6 490/3/6
f 489/3/6 477/3/6 490/3/6
f 438/7/6 484/7/6 491/7/6
f 485/7/6 486/7/6 492/7/6
f 492/7/6 486/7/6 493/7/6
f 489/7/6 490/7/6 494/7/6
f 494/7/6 490/7/6 495/7/6
f 494/7/6 495/7/6 497/7/6
f 495/7/6 496/7/6 497/7/6
f 493/7/6 494/7/6 497/7/6
f 492/7/6 493/7/6 497/7/6
f 491/7/6 492/7/6 497/7/6
f 479/7/6 480/7/6 498/7/6
f 491/7/6 497/7/6 499/7/6
f 497/7/6 498/7/6 499/7/6
f 498/7/6 480/7/6 500/7/6
f 499/7/6 498/7/6 500/7/6
f 438/7/6 491/7/6 501/7/6
f 491/7/6 499/7/6 501/7/6
f 501/7/6 499/7/6 502/7/6
f 502/7/6 499/7/6 503/7/6
f 503/7/6 499/7/6 504/7/6
f 504/7/6 499/7/6 505/7/6
f 505/7/6 499/7/6 506/7/6
f 475/7/6 463/7/6 508/7/6
f 420/7/6 438/7/6 509/7/6
f 438/7/6 501/7/6 509/7/6
f 509/7/6 501/7/6 510/7/6
f 502/7/6 503/7/6 512/7/6
f 512/7/6 503/7/6 513/7/6
f 504/7/6 505/7/6 514/7/6
f 514/7/6 505/7/6 515/7/6
f 507/7/6 508/7/6 516/7/6
f 508/7/6 463/7/6 517/7/6
f 516/7/6 508/7/6 517/7/6
f 463/7/6 453/7/6 518/7/6
f 517/7/6 463/7/6 518/7/6
f 514/7/6 515/7/6 519/7/6
f 512/7/6 513/7/6 519/7/6
f 517/1/6 518/1/6 519/1/6
f 515/7/6 516/7/6 519/7/6
f 513/7/6 514/7/6 519/7/6
f 516/7/6 517/7/6 519/7/6
f 511/7/6 512/7/6 519/7/6
f 518/7/6 453/7/6 520/7/6
f 519/1/6 518/1/6 520/1/6
f 511/7/6 519/7/6 521/7/6
f 519/7/6 520/7/6 521/7/6
f 520/7/6 453/7/6 522/7/6
f 521/7/6 520/7/6 522/7/6
f 523/6/6 524/6/6 525/6/6
f 525/6/6 524/6/6 526/6/6
f 527/6/6 528/6/6 529/6/6
f 529/6/6 528/6/6 530/6/6
f 531/6/6 532/6/6 535/6/6
f 533/6/6 534/6/6 538/6/6
f 535/6/6 536/6/6 539/6/6
f 531/6/6 535/6/6 539/6/6
f 539/6/6 536/6/6 540/6/6
f 537/6/6 538/6/6 541/6/6
f 538/6/6 534/6/6 542/6/6
f 541/6/6 538/6/6 542/6/6
f 531/6/6 539/6/6 543/6/6
f 543/6/6 539/6/6 544/6/6
f 545/6/6 546/6/6 550/6/6
f 550/6/6 546/6/6 551/6/6
f 549/6/6 550/6/6 551/6/6
f 547/6/6 548/6/6 552/6/6
f 542/6/6 534/6/6 555/6/6
f 555/6/6 534/6/6 556/6/6
f 553/6/6 554/6/6 557/6/6
f 557/6/6 554/6/6 558/6/6
f 551/6/6 552/6/6 561/6/6
f 552/6/6 548/6/6 561/6/6
f 561/6/6 548/6/6 562/6/6
f 553/6/6 557/6/6 563/6/6
f 563/6/6 557/6/6 564/6/6
f 559/6/6 560/6/6 565/6/6
f 565/6/6 560/6/6 566/6/6
f 559/6/6 565/6/6 567/6/6
f 567/6/6 565/6/6 568/6/6
f 549/6/6 551/6/6 569/6/6
f 551/6/6 561/6/6 569/6/6
f 569/6/6 561/6/6 570/6/6
f 570/6/6 561/6/6 571/6/6
f 571/6/6 561/6/6 572/6/6
f 573/6/6 574/6/6 575/6/6
f 564/6/6 557/6/6 577/6/6
f 575/6/6 576/6/6 580/6/6
f 573/6/6 575/6/6 580/6/6
f 581/6/6 582/6/6 586/6/6
f 586/6/6 582/6/6 587/6/6
f 585/6/6 586/6/6 587/6/6
f 583/6/6 584/6/6 589/6/6
f 589/6/6 584/6/6 590/6/6
f 587/6/6 588/6/6 591/6/6
f 585/6/6 587/6/6 591/6/6
f 591/6/6 588/6/6 592/6/6
f 577/6/6 578/6/6 593/6/6
f 564/6/6 577/6/6 593/6/6
f 593/6/6 578/6/6 594/6/6
f 594/6/6 578/6/6 595/6/6
f 595/6/6 578/6/6 596/6/6
f 579/6/6 580/6/6 598/6/6
f 597/6/6 598/6/6 604/6/6
f 580/6/6 576/6/6 605/6/6
f 603/6/6 604/6/6 605/6/6
f 604/6/6 598/6/6 605/6/6
f 598/6/6 580/6/6 605/6/6
f 605/6/6 576/6/6 606/6/6
f 599/6/6 600/6/6 608/6/6
f 608/6/6 600/6/6 609/6/6
f 607/6/6 608/6/6 609/6/6
f 609/6/6 600/6/6 610/6/6
f 601/6/6 602/6/6 611/6/6
f 611/6/6 602/6/6 612/6/6
f 603/6/6 605/6/6 613/6/6
f 613/6/6 605/6/6 614/6/6
f 607/6/6 609/6/6 615/6/6
f 615/6/6 609/6/6 616/6/6
